<?xml version="1.0" encoding="UTF-8" standalone="no"?>
<!-- Created with Inkscape (http://www.inkscape.org/) -->

<svg
   width="15.92579mm"
   height="19.683611mm"
   viewBox="0 0 15.92579 19.683611"
   version="1.1"
   id="svg1"
   xmlns="http://www.w3.org/2000/svg"
   xmlns:svg="http://www.w3.org/2000/svg">
   <defs
      id="defs1" />
   <g
      id="layer1"
      transform="translate(-73.289581,-78.845825)">
      <path
         id="path1"
         style="fill:#1a1a1a;stroke-width:0.565;stroke-dasharray:none"
         d="m 214.82812,186.21484 c 0,0 -0.029,0.001 -0.0488,0.002 -0.0694,0.002 -0.1392,0.007 -0.20899,0.0176 -0.002,2.1e-4 -0.0277,0.003 -0.0488,0.006 -0.0223,0.004 -0.0433,0.008 -0.0644,0.0117 0,0 -0.0232,0.003 -0.043,0.008 -0.0367,0.008 -0.0737,0.0191 -0.10937,0.0293 a 0.05718865,0.05718865 0 0 0 -0.002,0 c 0,0 -0.0511,0.0169 -0.082,0.0273 l -0.0449,0.0137 a 0.05718865,0.05718865 0 0 0 -0.004,0.002 l -0.01,0.004 c -0.0137,0.006 -0.0234,0.0117 -0.0234,0.0117 -0.0341,0.0129 -0.0695,0.0244 -0.10547,0.041 0,0 -0.0371,0.0181 -0.0742,0.0371 a 0.05718865,0.05718865 0 0 0 -0.002,0 l -0.0254,0.0137 c -0.0159,0.008 -0.0333,0.0177 -0.0527,0.0293 0,0 -0.0356,0.0217 -0.0664,0.041 -0.003,0.002 -0.004,0.002 -0.008,0.004 a 0.05718865,0.05718865 0 0 0 -0.008,0.004 l -0.0117,0.008 -0.008,0.006 a 0.05718865,0.05718865 0 0 0 -0.002,0.002 c -0.0145,0.01 -0.0312,0.0215 -0.0312,0.0215 -0.0119,0.008 -0.0273,0.0176 -0.0273,0.0176 a 0.05718865,0.05718865 0 0 0 -0.006,0.004 l -0.01,0.008 c -0.0202,0.0148 -0.0412,0.0299 -0.0625,0.0469 0,0 -0.0318,0.0259 -0.0586,0.0488 a 0.05718865,0.05718865 0 0 0 -0.004,0.002 l -0.008,0.008 c -0.003,0.003 -0.0299,0.0276 -0.0527,0.0488 -0.007,0.007 -0.0156,0.0137 -0.0156,0.0137 -0.003,0.002 -0.007,0.003 -0.0117,0.008 a 0.05718865,0.05718865 0 0 0 -0.004,0.006 c -0.006,0.008 -0.003,0.003 -0.004,0.004 l -0.008,0.008 -0.0195,0.0195 a 0.05718865,0.05718865 0 0 0 0,0.002 c -0.0105,0.011 -0.0207,0.0219 -0.0312,0.0332 0,0 -0.0319,0.0341 -0.0547,0.0606 a 0.05718865,0.05718865 0 0 0 -0.002,0 c -0.008,0.01 -0.0176,0.0215 -0.0176,0.0215 -0.006,0.007 -0.0156,0.0195 -0.0156,0.0195 a 0.05718865,0.05718865 0 0 0 -0.008,0.01 l -0.002,0.004 -0.002,0.002 -0.002,0.004 c -0.0155,0.02 -0.0326,0.0401 -0.0488,0.0625 l -0.0156,0.0215 a 0.05718865,0.05718865 0 0 0 -0.004,0.004 c -0.007,0.0101 -0.0106,0.0196 -0.0117,0.0215 -1.2e-4,2.1e-4 -0.002,0.002 -0.002,0.002 l -0.004,0.004 a 0.05718865,0.05718865 0 0 0 -0.004,0.004 c -0.01,0.0136 -0.0176,0.0273 -0.0176,0.0273 l -0.008,0.0137 c -0.0242,0.038 -0.0498,0.0769 -0.0723,0.11914 a 0.05718865,0.05718865 0 0 0 0,0.002 c 0,0 -0.0186,0.0378 -0.0352,0.0723 l -0.0156,0.0312 c -0.005,0.01 -0.01,0.0195 -0.01,0.0195 -0.004,0.007 -0.008,0.0137 -0.008,0.0137 a 0.05718865,0.05718865 0 0 0 -0.002,0.004 c -0.005,0.0123 -0.0103,0.0258 -0.0156,0.0391 -0.003,0.007 -0.004,0.0112 -0.006,0.0156 -0.007,0.0186 -0.0121,0.0349 -0.0176,0.0488 a 0.05718865,0.05718865 0 0 0 -0.002,0.004 v 0.002 l -0.006,0.0117 a 0.05718865,0.05718865 0 0 0 -0.004,0.006 c -0.009,0.0259 -0.0171,0.0513 -0.0254,0.0781 a 0.05718865,0.05718865 0 0 0 0,0.002 l -0.004,0.0176 h -0.002 c -0.0165,0.005 -0.0392,0.011 -0.0645,0.0195 a 0.05718865,0.05718865 0 0 0 -0.002,0 l -0.043,0.0156 -0.01,0.004 a 0.05718865,0.05718865 0 0 0 -0.002,0 c -0.0101,0.004 -0.0176,0.008 -0.0176,0.008 -0.0387,0.0149 -0.0757,0.0297 -0.11328,0.0469 0,0 -0.0371,0.0181 -0.0742,0.0371 a 0.05718865,0.05718865 0 0 0 -0.002,0 l -0.0254,0.0137 c -0.0188,0.01 -0.0338,0.0191 -0.0488,0.0273 0,0 -0.0419,0.0217 -0.0781,0.0449 a 0.05718865,0.05718865 0 0 0 -0.01,0.008 l -0.008,0.006 -0.01,0.006 a 0.05718865,0.05718865 0 0 0 -0.002,0 c -0.0126,0.008 -0.0273,0.0176 -0.0273,0.0176 a 0.05718865,0.05718865 0 0 0 -0.002,0.002 c -0.0143,0.01 -0.0332,0.0234 -0.0332,0.0234 a 0.05718865,0.05718865 0 0 0 -0.002,0.002 l -0.008,0.006 c -0.0206,0.0152 -0.0434,0.0319 -0.0644,0.0488 0,0 -0.0316,0.0257 -0.0586,0.0488 l -0.006,0.004 a 0.05718865,0.05718865 0 0 0 -0.004,0.002 c 0,0 -0.0315,0.031 -0.0547,0.0527 -0.005,0.005 -0.0117,0.01 -0.0117,0.01 a 0.05718865,0.05718865 0 0 0 -0.006,0.004 l -0.008,0.008 a 0.05718865,0.05718865 0 0 0 -0.004,0.006 c -0.006,0.008 -0.003,0.003 -0.004,0.004 l -0.002,0.002 a 0.05718865,0.05718865 0 0 0 -0.006,0.004 c -0.009,0.009 -0.0195,0.0195 -0.0195,0.0195 -0.0117,0.0117 -0.0228,0.0236 -0.0332,0.0352 h 0.002 c 0,0 -0.0319,0.0341 -0.0547,0.0605 a 0.05718865,0.05718865 0 0 0 -0.002,0 c -0.008,0.01 -0.0176,0.0215 -0.0176,0.0215 a 0.05718865,0.05718865 0 0 0 0,0.002 c -0.007,0.009 -0.0176,0.0215 -0.0176,0.0215 a 0.05718865,0.05718865 0 0 0 -0.002,0.002 l -0.006,0.008 c -0.0187,0.0236 -0.0364,0.0476 -0.0527,0.0703 l -0.0156,0.0215 a 0.05718865,0.05718865 0 0 0 -0.002,0.004 c -0.003,0.005 -0.01,0.0117 -0.01,0.0117 a 0.05718865,0.05718865 0 0 0 -0.004,0.004 l -0.01,0.0137 c -0.0106,0.0151 -0.0195,0.0312 -0.0195,0.0312 l -0.006,0.0117 c -0.0243,0.0382 -0.0497,0.0776 -0.0723,0.11914 a 0.05718865,0.05718865 0 0 0 0,0.002 c 0,0 -0.0182,0.036 -0.0351,0.0703 l -0.0156,0.0312 a 0.05718865,0.05718865 0 0 0 -0.002,0.004 c -0.003,0.007 -0.008,0.0176 -0.008,0.0176 a 0.05718865,0.05718865 0 0 0 -0.002,0.002 c -0.006,0.0132 -0.008,0.0234 -0.008,0.0234 -0.003,0.008 -0.007,0.0143 -0.01,0.0215 0,0 0,0.002 0,0.002 -0.001,0.003 -0.003,0.005 -0.004,0.008 -0.003,0.005 -0.007,0.01 -0.008,0.0137 -0.006,0.0158 -0.0108,0.0325 -0.0156,0.0469 l -0.002,0.004 c -4.2e-4,0.001 -0.002,0.003 -0.002,0.004 l -0.006,0.0117 a 0.05718865,0.05718865 0 0 0 -0.004,0.006 c -0.01,0.0276 -0.0174,0.0543 -0.0254,0.0801 a 0.05718865,0.05718865 0 0 0 0,0.002 l -0.004,0.0117 0.0195,-0.002 c 0,0 -0.0149,0.005 -0.0195,0.006 l -0.004,0.0117 0.002,-0.0117 c -0.0164,0.005 -0.0392,0.011 -0.0645,0.0195 a 0.05718865,0.05718865 0 0 0 -0.002,0 l -0.0449,0.0156 a 0.05718865,0.05718865 0 0 0 -0.002,0.002 l -0.01,0.004 c -0.006,0.003 -0.0137,0.004 -0.0137,0.004 a 0.05718865,0.05718865 0 0 0 -0.002,0.002 c -0.0386,0.0149 -0.0753,0.0294 -0.11329,0.0469 0,0 -0.0373,0.0181 -0.0742,0.0371 a 0.05718865,0.05718865 0 0 0 -0.002,0 l -0.0254,0.0137 c -0.0159,0.008 -0.0333,0.0177 -0.0527,0.0293 0,0 -0.0391,0.0238 -0.0723,0.0449 -6.5e-4,4.2e-4 -0.001,-4.1e-4 -0.002,0 a 0.05718865,0.05718865 0 0 0 -0.004,0.002 l -0.0137,0.01 -0.01,0.006 a 0.05718865,0.05718865 0 0 0 -0.002,0.002 c -0.0115,0.008 -0.0273,0.0156 -0.0273,0.0156 a 0.05718865,0.05718865 0 0 0 -0.002,0.002 c -0.0143,0.01 -0.0332,0.0234 -0.0332,0.0234 a 0.05718865,0.05718865 0 0 0 -0.002,0.002 l -0.01,0.008 c -0.0208,0.0151 -0.0419,0.0308 -0.0625,0.0469 0,0 -0.0316,0.0257 -0.0586,0.0488 a 0.05718865,0.05718865 0 0 0 -0.004,0.002 l -0.008,0.008 c -0.003,0.003 -0.0299,0.0276 -0.0527,0.0488 -0.007,0.007 -0.0156,0.0137 -0.0156,0.0137 -1.1e-4,1.6e-4 -0.002,0.002 -0.002,0.002 a 0.05718865,0.05718865 0 0 0 -0.0137,0.0117 l -0.006,0.006 -0.006,0.006 c -0.009,0.009 -0.0195,0.0195 -0.0195,0.0195 -0.009,0.009 -0.0189,0.0198 -0.0312,0.0332 a 0.05718865,0.05718865 0 0 0 -0.002,0.002 c 0,0 -0.0309,0.0349 -0.0527,0.0606 a 0.05718865,0.05718865 0 0 0 -0.002,0 c -0.005,0.006 -0.0156,0.0176 -0.0156,0.0176 a 0.05718865,0.05718865 0 0 0 -0.004,0.004 c -0.009,0.0106 -0.0176,0.0234 -0.0176,0.0234 l -0.004,0.002 a 0.05718865,0.05718865 0 0 0 -0.004,0.006 c -0.0185,0.0235 -0.0363,0.0475 -0.0527,0.0703 a 0.05718865,0.05718865 0 0 0 0,0.002 l -0.0156,0.0234 c -0.004,0.005 -0.01,0.0117 -0.01,0.0117 a 0.05718865,0.05718865 0 0 0 -0.004,0.004 l -0.01,0.0137 c -0.0107,0.0151 -0.0195,0.0312 -0.0195,0.0312 l -0.006,0.008 a 0.05718865,0.05718865 0 0 0 -0.002,0.002 c -0.0252,0.0397 -0.0482,0.0803 -0.0703,0.12109 -0.001,0.002 -0.02,0.0366 -0.0371,0.0723 a 0.05718865,0.05718865 0 0 0 -0.002,0.002 l -0.0137,0.0312 c -0.006,0.0114 -0.01,0.0234 -0.01,0.0234 -0.003,0.006 -0.006,0.01 -0.006,0.01 a 0.05718865,0.05718865 0 0 0 -0.002,0.004 c -0.004,0.009 -0.008,0.0196 -0.0117,0.0293 0,0 0,0.002 0,0.002 -0.001,0.003 -0.003,0.005 -0.004,0.008 -0.003,0.005 -0.007,0.01 -0.008,0.0137 -0.007,0.0194 -0.0122,0.037 -0.0176,0.0508 a 0.05718865,0.05718865 0 0 0 -0.004,0.008 l -0.006,0.0176 c -0.009,0.0253 -0.0173,0.05 -0.0254,0.0762 a 0.05718865,0.05718865 0 0 0 0,0.002 l -0.008,0.0293 c -0.005,0.0186 -0.0137,0.043 -0.0137,0.043 a 0.05718865,0.05718865 0 0 0 -0.002,0.006 l -0.002,0.01 0.002,-0.002 c -0.004,0.015 -0.011,0.0307 -0.0156,0.0508 -0.001,0.005 -0.002,0.0122 -0.002,0.0156 -0.005,0.022 -0.01,0.0445 -0.0137,0.0684 0,0 -0.005,0.0257 -0.008,0.0508 a 0.05718865,0.05718865 0 0 0 0,0.002 c -6.8e-4,0.006 -0.001,0.004 -0.002,0.006 -4.7e-4,0.002 -0.003,0.009 -0.004,0.0195 -0.002,0.0155 -0.004,0.0332 -0.004,0.0332 a 0.05718865,0.05718865 0 0 0 0,0.006 v 0.01 c -0.002,0.013 -0.005,0.0275 -0.006,0.0449 l -0.002,0.0234 c -0.004,0.0472 -0.006,0.0958 -0.006,0.14258 v 0.006 13.21289 0.0117 a 0.05718865,0.05718865 0 0 0 0,0.002 c 0.001,0.0496 0.004,0.0958 0.008,0.14453 v 0.01 a 0.05718865,0.05718865 0 0 0 0,0.006 c 0,0 0.002,0.0203 0.004,0.041 a 0.05718865,0.05718865 0 0 0 0,0.004 l 0.002,0.0117 c 2.6e-4,0.002 0.005,0.0351 0.01,0.0644 0.003,0.016 0.006,0.0391 0.006,0.0391 a 0.05718865,0.05718865 0 0 0 0,0.002 c 0.009,0.0494 0.0204,0.0977 0.0332,0.14649 0,0 0.005,0.0241 0.0117,0.0469 0,0 0.006,0.0238 0.0137,0.0469 a 0.05718865,0.05718865 0 0 0 0,0.002 l 0.0156,0.043 c 0.006,0.0169 0.0137,0.0391 0.0137,0.0391 a 0.05718865,0.05718865 0 0 0 0.002,0.002 l 0.004,0.01 c 0.003,0.008 0.006,0.0156 0.006,0.0156 0.0149,0.0387 0.0297,0.0757 0.0469,0.11328 l 0.0137,0.0312 a 0.05718865,0.05718865 0 0 0 0.002,0.002 c 0.006,0.0132 0.0118,0.0242 0.0176,0.0352 l 0.002,0.004 c 3.7e-4,7.2e-4 0.002,0.001 0.002,0.002 a 0.05718865,0.05718865 0 0 0 0.002,0.008 c 0.0132,0.0253 0.028,0.0474 0.041,0.0703 a 0.05718865,0.05718865 0 0 0 0,0.002 l 0.0195,0.0332 c 0.0123,0.0208 0.0248,0.0396 0.041,0.0644 l 0.01,0.0176 a 0.05718865,0.05718865 0 0 0 0.002,0.004 l 0.01,0.0137 c 0.0124,0.0178 0.0293,0.0391 0.0293,0.0391 0.0203,0.028 0.0411,0.0571 0.0644,0.0859 a 0.05718865,0.05718865 0 0 0 0.002,0.002 c 0,0 0.0191,0.0205 0.0352,0.0391 0.003,0.003 0.003,0.004 0.006,0.008 a 0.05718865,0.05718865 0 0 0 0.002,0.004 c 0.0259,0.0296 0.0528,0.0581 0.0801,0.0859 l 0.002,0.004 a 0.05718865,0.05718865 0 0 0 0.006,0.006 c 0.0115,0.0112 0.0234,0.0215 0.0234,0.0215 0.02,0.0195 0.0392,0.0377 0.0606,0.0566 0,0 0.019,0.0166 0.0312,0.0273 0.015,0.0129 0.029,0.0236 0.041,0.0332 l 0.002,0.004 a 0.05718865,0.05718865 0 0 0 0.006,0.004 c 0,0 0.0387,0.0307 0.0742,0.0566 a 0.05718865,0.05718865 0 0 0 0.002,0 c 0,0 0.0177,0.0133 0.0351,0.0254 l 0.0195,0.0137 a 0.05718865,0.05718865 0 0 0 0.002,0.002 c 0.009,0.006 0.0215,0.0137 0.0215,0.0137 a 0.05718865,0.05718865 0 0 0 0.002,0.002 c 0.0267,0.0172 0.0544,0.0339 0.084,0.0508 0,0 0.025,0.0154 0.0508,0.0293 0,0 0.0588,0.0307 0.10156,0.0508 l 0.0254,0.0117 c 0.006,0.003 0.0117,0.006 0.0117,0.006 a 0.05718865,0.05718865 0 0 0 0.004,0.002 c 0.0345,0.0152 0.07,0.0301 0.10547,0.043 l 0.0215,0.008 v -0.002 c 0.0197,0.007 0.0377,0.0129 0.041,0.0137 0.0167,0.006 0.0391,0.0137 0.0391,0.0137 a 0.05718865,0.05718865 0 0 0 0.002,0 c 0.0116,0.004 0.0151,0.005 0.0215,0.006 l 0.01,0.004 c 3.3e-4,4e-5 0.004,0 0.004,0 a 0.05718865,0.05718865 0 0 0 0.004,0.002 c 0.0185,0.005 0.0391,0.01 0.0391,0.01 l 0.004,0.002 a 0.05718865,0.05718865 0 0 0 0.004,0 c 0.0438,0.0108 0.0883,0.0229 0.13477,0.0312 0,0 0.0434,0.007 0.0781,0.0117 0.0147,0.002 0.0293,0.004 0.0293,0.004 a 0.05718865,0.05718865 0 0 0 0.008,0 h 0.0117 c 0.0132,0.002 0.0258,0.004 0.0391,0.006 a 0.05718865,0.05718865 0 0 0 0.004,0 l 0.0215,0.002 c 0.048,0.004 0.0971,0.006 0.14453,0.006 h 0.006 9.44727 0.0117 a 0.05718865,0.05718865 0 0 0 0.002,0 c 0.0478,-0.001 0.0942,-0.002 0.14453,-0.006 a 0.05718865,0.05718865 0 0 0 0.006,0 l 0.006,-0.002 c 0,0 0.024,-0.002 0.0449,-0.004 a 0.05718865,0.05718865 0 0 0 0.004,0 l 0.0117,-0.002 a 0.05718865,0.05718865 0 0 0 0.002,0 c 0,0 0.0189,-0.004 0.0312,-0.006 0.0201,-0.003 0.0402,-0.006 0.0625,-0.01 0,0 0.0266,-0.003 0.0488,-0.008 0.004,-6.5e-4 0.006,-6.2e-4 0.0137,-0.002 a 0.05718865,0.05718865 0 0 0 0.002,0 c 0.0312,-0.007 0.0608,-0.0152 0.0918,-0.0234 a 0.05718865,0.05718865 0 0 0 0.004,0 l 0.0117,-0.004 0.0215,-0.006 0.01,-0.002 a 0.05718865,0.05718865 0 0 0 0.006,-0.002 c 0.0279,-0.008 0.0547,-0.0164 0.0801,-0.0254 l 0.0449,-0.0156 a 0.05718865,0.05718865 0 0 0 0.002,-0.002 l 0.008,-0.004 c 0.0616,-0.0233 0.1247,-0.048 0.18555,-0.0781 a 0.05718865,0.05718865 0 0 0 0.002,0 l 0.0234,-0.0137 c 0.0169,-0.009 0.0277,-0.0157 0.0449,-0.0254 0.0147,-0.007 0.0312,-0.0156 0.0312,-0.0156 0.015,-0.008 0.0299,-0.0187 0.0312,-0.0195 0.0179,-0.0111 0.015,-0.009 0.0234,-0.0137 a 0.05718865,0.05718865 0 0 0 0.002,-0.002 l 0.0117,-0.006 0.0312,-0.0195 a 0.05718865,0.05718865 0 0 0 0.002,0 c 0.0171,-0.0111 0.0215,-0.0158 0.0234,-0.0176 l 0.004,-0.004 c 0.004,-0.003 0.0181,-0.0111 0.0352,-0.0234 a 0.05718865,0.05718865 0 0 0 0.002,-0.002 l 0.0293,-0.0215 0.002,-0.002 c 0.006,-0.004 0.0117,-0.008 0.0117,-0.008 a 0.05718865,0.05718865 0 0 0 0.002,-0.002 c 0.0278,-0.0212 0.0551,-0.0436 0.082,-0.0664 0,0 0.0288,-0.0249 0.0547,-0.0488 l 0.002,-0.002 0.0312,-0.0274 a 0.05718865,0.05718865 0 0 0 0.002,-0.002 c 0.0318,-0.0307 0.0632,-0.0623 0.0918,-0.0937 l 0.002,-0.002 0.002,-0.002 a 0.05718865,0.05718865 0 0 0 0.002,-0.002 c 0.0181,-0.0203 0.0335,-0.0403 0.0488,-0.0586 l 0.002,-0.004 0.006,-0.004 a 0.05718865,0.05718865 0 0 0 0.004,-0.006 c 0,0 0.0126,-0.0161 0.0215,-0.0273 0.016,-0.0205 0.0309,-0.0412 0.0449,-0.0606 0,0 0.0301,-0.0412 0.0527,-0.0762 0.019,-0.029 0.037,-0.0599 0.0547,-0.0898 a 0.05718865,0.05718865 0 0 0 0.002,-0.002 c 0,0 0.0186,-0.0332 0.0351,-0.0644 0.021,-0.0399 0.0404,-0.0799 0.0586,-0.12109 a 0.05718865,0.05718865 0 0 0 0.002,-0.006 l 0.002,-0.006 c 0.0241,-0.0558 0.0473,-0.11329 0.0664,-0.17188 a 0.05718865,0.05718865 0 0 0 0.002,-0.006 c -7.6e-4,0.003 0.001,-0.004 0.002,-0.006 l 0.002,-0.006 c 0.003,-0.01 0.005,-0.0183 0.008,-0.0274 0.023,-0.007 0.0466,-0.0153 0.0664,-0.0215 a 0.05718865,0.05718865 0 0 0 0.002,0 l 0.043,-0.0156 0.01,-0.004 a 0.05718865,0.05718865 0 0 0 0.002,-0.002 c 0.0622,-0.0235 0.1229,-0.0491 0.18164,-0.0781 l 0.002,-0.002 0.0234,-0.01 a 0.05718865,0.05718865 0 0 0 0.004,-0.002 c 0.0124,-0.006 0.0247,-0.0114 0.0469,-0.0234 a 0.05718865,0.05718865 0 0 0 0.002,-0.002 c 0.0124,-0.007 0.0251,-0.0143 0.0273,-0.0156 l 0.002,-0.002 c 0.0147,-0.008 0.028,-0.0168 0.0293,-0.0176 0.0177,-0.0105 0.0168,-0.01 0.0234,-0.0137 l 0.01,-0.006 a 0.05718865,0.05718865 0 0 0 0.002,0 l 0.0312,-0.0215 c 0.02,-0.0125 0.0239,-0.0159 0.0234,-0.0156 a 0.05718865,0.05718865 0 0 0 0.004,-0.002 c 0,0 0.0212,-0.0147 0.0391,-0.0274 a 0.05718865,0.05718865 0 0 0 0.002,-0.002 l 0.0293,-0.0215 0.002,-0.002 c 0.006,-0.004 0.0117,-0.008 0.0117,-0.008 a 0.05718865,0.05718865 0 0 0 0.002,-0.002 c 0.029,-0.0221 0.0542,-0.0443 0.0801,-0.0664 0,0 0.0302,-0.0247 0.0566,-0.0488 a 0.05718865,0.05718865 0 0 0 0,-0.002 l 0.0332,-0.0312 c 0.0303,-0.0295 0.0622,-0.0593 0.0918,-0.0918 l 0.002,-0.002 0.002,-0.002 a 0.05718865,0.05718865 0 0 0 0.002,-0.004 c 0.0175,-0.0196 0.0369,-0.039 0.0547,-0.0606 a 0.05718865,0.05718865 0 0 0 0,-0.002 l 0.006,-0.008 c 0,0 0.0134,-0.0173 0.0215,-0.0273 0.0154,-0.0194 0.0319,-0.04 0.0469,-0.0605 0,0 0.0303,-0.0418 0.0527,-0.0762 0.0189,-0.029 0.0369,-0.0588 0.0547,-0.0898 a 0.05718865,0.05718865 0 0 0 0.002,-0.002 c 0,0 0.0186,-0.0332 0.0352,-0.0645 0.0214,-0.0401 0.0405,-0.0802 0.0586,-0.12109 a 0.05718865,0.05718865 0 0 0 0.002,-0.006 l 0.002,-0.006 c 0.0233,-0.0539 0.0458,-0.10929 0.0645,-0.16601 v -0.004 c 0.002,-0.006 0.004,-0.0107 0.004,-0.01 a 0.05718865,0.05718865 0 0 0 0.002,-0.004 c 0.003,-0.009 0.003,-0.0145 0.006,-0.0254 a 0.05718865,0.05718865 0 0 0 0.0156,-0.002 c 0.0205,-0.006 0.0413,-0.0122 0.0625,-0.0195 l 0.043,-0.0156 0.01,-0.004 a 0.05718865,0.05718865 0 0 0 0.004,-0.002 c 0.0624,-0.024 0.12333,-0.0502 0.17969,-0.0781 l 0.002,-0.002 0.0234,-0.01 a 0.05718865,0.05718865 0 0 0 0.002,-0.002 c 0.0169,-0.009 0.0277,-0.0157 0.0449,-0.0254 0.0127,-0.006 0.0312,-0.0156 0.0312,-0.0156 a 0.05718865,0.05718865 0 0 0 0.002,0 c 0.015,-0.008 0.0299,-0.0187 0.0312,-0.0195 0.012,-0.007 0.0191,-0.0127 0.0234,-0.0156 l 0.006,-0.004 0.006,-0.002 a 0.05718865,0.05718865 0 0 0 0.006,-0.002 c 0.0138,-0.009 0.0239,-0.0169 0.0273,-0.0195 l 0.004,-0.004 c 0.0101,-0.007 0.0157,-0.0107 0.0195,-0.0137 l 0.004,-0.002 c 0.003,-0.002 0.0183,-0.0115 0.0352,-0.0234 l 0.0332,-0.0234 c 0.008,-0.006 0.0103,-0.008 0.0137,-0.0117 l 0.006,-0.006 c 0.0256,-0.0197 0.0515,-0.0396 0.0762,-0.0606 0,0 0.0299,-0.026 0.0566,-0.0508 l 0.0332,-0.0312 c 0.0305,-0.0298 0.0623,-0.0593 0.0918,-0.0918 l 0.002,-0.002 0.002,-0.002 a 0.05718865,0.05718865 0 0 0 0.002,-0.002 c 0.0193,-0.0213 0.0363,-0.0425 0.0527,-0.0625 a 0.05718865,0.05718865 0 0 0 0,-0.002 l 0.006,-0.006 0.002,-0.004 c 0.002,-0.003 0.0119,-0.0132 0.0215,-0.0254 0.0153,-0.0192 0.0317,-0.0395 0.0469,-0.0606 0,0 0.0301,-0.0412 0.0527,-0.0762 0.0197,-0.0302 0.0358,-0.0605 0.0527,-0.0898 0,0 0.0239,-0.0401 0.043,-0.0762 a 0.05718865,0.05718865 0 0 0 0,-0.002 c 0,0 0.0114,-0.0224 0.0215,-0.043 5.9e-4,-7.8e-4 0.001,-0.002 0.002,-0.004 a 0.05718865,0.05718865 0 0 0 0.004,-0.006 0.05718865,0.05718865 0 0 0 0.002,-0.004 c 0.009,-0.0186 0.0165,-0.0374 0.0234,-0.0527 l 0.002,-0.002 v -0.002 a 0.05718865,0.05718865 0 0 0 0.002,-0.002 c 0.0247,-0.0566 0.0456,-0.11443 0.0645,-0.17188 v -0.002 c 0.003,-0.008 0.004,-0.0123 0.004,-0.0117 a 0.05718865,0.05718865 0 0 0 0.002,-0.004 c 0.0229,-0.0722 0.0422,-0.14629 0.0566,-0.2207 a 0.05718865,0.05718865 0 0 0 0,-0.002 c 0,0 0.016,-0.0876 0.0234,-0.15625 0.007,-0.0684 0.009,-0.1361 0.01,-0.20313 v -13.21094 c -2.1e-4,-0.11607 -0.01,-0.2322 -0.0312,-0.34961 0,0 -0.0109,-0.0515 -0.0215,-0.0957 -0.0103,-0.043 -0.022,-0.0862 -0.0352,-0.12891 v -0.004 c -7.5e-4,-0.003 -0.004,-0.0173 -0.01,-0.0332 v -0.002 c -0.0249,-0.0742 -0.0557,-0.14748 -0.0898,-0.21875 l -0.002,-0.004 c -0.007,-0.0136 -0.0122,-0.0231 -0.0176,-0.0332 v -0.002 c -9.9e-4,-0.002 -0.003,-0.004 -0.004,-0.006 v -0.004 a 0.05718865,0.05718865 0 0 0 -0.006,-0.0117 c 0,0 -0.0107,-0.0181 -0.0176,-0.0312 a 0.05718865,0.05718865 0 0 0 0,-0.002 c -0.011,-0.0201 -0.0229,-0.04 -0.0352,-0.0605 l -0.006,-0.01 a 0.05718865,0.05718865 0 0 0 -0.002,-0.004 c 0,0 -0.0108,-0.0166 -0.0176,-0.0273 -0.0103,-0.0164 -0.0214,-0.0349 -0.0352,-0.0547 l -0.0195,-0.0273 c -0.005,-0.007 -0.0137,-0.0176 -0.0137,-0.0176 a 0.05718865,0.05718865 0 0 0 0,-0.002 c -0.0201,-0.0275 -0.0404,-0.0545 -0.0625,-0.082 a 0.05718865,0.05718865 0 0 0 -0.004,-0.006 l -0.004,-0.002 -0.002,-0.004 a 0.05718865,0.05718865 0 0 0 -0.004,-0.008 c 0,0 -0.0125,-0.0129 -0.0234,-0.0254 -0.0476,-0.0558 -0.0978,-0.10728 -0.15234,-0.1582 a 0.05718865,0.05718865 0 0 0 -0.004,-0.004 l -0.004,-0.004 -0.006,-0.004 c -0.004,-0.004 -0.0124,-0.0142 -0.0254,-0.0254 h -0.002 c -0.0253,-0.0227 -0.0509,-0.0449 -0.0781,-0.0664 a 0.05718865,0.05718865 0 0 0 -0.002,-0.002 c 0,0 -0.0132,-0.009 -0.0215,-0.0156 a 0.05718865,0.05718865 0 0 0 -0.002,-0.002 c -4.4e-4,-4e-4 -0.004,-0.002 -0.004,-0.002 -0.001,-0.001 -0.001,-0.002 -0.004,-0.004 -0.0134,-0.01 -0.0312,-0.0234 -0.0312,-0.0234 a 0.05718865,0.05718865 0 0 0 -0.006,-0.004 l -0.006,-0.004 -0.004,-0.002 c -0.0138,-0.01 -0.0293,-0.0215 -0.0293,-0.0215 a 0.05718865,0.05718865 0 0 0 -0.002,0 c -0.0393,-0.0266 -0.0781,-0.0534 -0.1211,-0.0781 a 0.05718865,0.05718865 0 0 0 -0.002,-0.002 c 0,0 -0.0217,-0.0106 -0.0371,-0.0195 a 0.05718865,0.05718865 0 0 0 -0.002,-0.002 c -0.0125,-0.007 -0.0232,-0.0127 -0.041,-0.0215 h -0.002 c -0.0103,-0.006 -0.0177,-0.009 -0.0195,-0.01 l -0.002,-0.002 -0.01,-0.004 c -0.0103,-0.005 -0.0195,-0.01 -0.0195,-0.01 -0.0131,-0.006 -0.0312,-0.0156 -0.0312,-0.0156 a 0.05718865,0.05718865 0 0 0 -0.002,-0.002 c -0.0177,-0.008 -0.0337,-0.0136 -0.0469,-0.0195 l -0.0273,-0.0117 a 0.05718865,0.05718865 0 0 0 -0.002,0 c -0.0202,-0.008 -0.0363,-0.0132 -0.0527,-0.0195 a 0.05718865,0.05718865 0 0 0 -0.002,-0.002 l -0.0215,-0.008 v 0.002 c -0.0176,-0.006 -0.041,-0.0156 -0.041,-0.0156 a 0.05718865,0.05718865 0 0 0 -0.002,0 c 0.001,3.5e-4 -0.006,-0.003 -0.0215,-0.008 -0.003,-0.001 -0.006,-0.003 -0.01,-0.004 -0.0216,-0.007 -0.0427,-0.0118 -0.0625,-0.0176 l -0.0293,-0.008 c -0.0159,-0.005 -0.0301,-0.009 -0.043,-0.0117 0.004,0.001 0.009,0.005 0.008,0.004 -7.2e-4,-3.6e-4 -0.006,-0.003 -0.01,-0.004 -0.004,-0.002 -0.007,-0.003 -0.0117,-0.004 -0.0182,-0.004 -0.0391,-0.008 -0.0391,-0.008 l -0.01,-0.002 c -0.0263,-0.006 -0.0526,-0.01 -0.0781,-0.0137 a 0.05718865,0.05718865 0 0 0 -0.004,0 l -0.0332,-0.004 c -0.0264,-0.004 -0.0541,-0.008 -0.084,-0.0117 a 0.05718865,0.05718865 0 0 0 -0.002,0 c 0,0 -0.0649,-0.004 -0.11718,-0.006 -0.014,-4e-4 -0.0309,-0.002 -0.0508,-0.002 h -0.01 -9.43555 -0.01 a 0.05718865,0.05718865 0 0 0 -0.002,0 z m -0.002,0.71094 h 0.0117 9.43164 c 0.0582,1.9e-4 0.1152,0.004 0.17188,0.0117 0.002,2.9e-4 0.0225,0.004 0.0449,0.008 l 0.0234,0.004 c 0.009,0.002 0.0204,0.003 0.0312,0.006 a 0.05718865,0.05718865 0 0 0 0.004,0.002 c 0.01,0.002 0.0103,0.002 0.0195,0.004 0.0155,0.004 0.0294,0.007 0.0449,0.0117 a 0.05718865,0.05718865 0 0 0 0.002,0.002 c 0,0 0.02,0.004 0.0332,0.008 0,0 0.0416,0.0131 0.0625,0.0215 a 0.05718865,0.05718865 0 0 0 0.002,0 c 0.0215,0.008 0.0424,0.0193 0.0645,0.0293 0.003,0.001 0.0372,0.0178 0.0625,0.0312 0.0536,0.028 0.10543,0.06 0.15429,0.0957 a 0.05718865,0.05718865 0 0 0 0.008,0.004 c 0.0266,0.0198 0.0516,0.0412 0.0781,0.0645 0,0 0.026,0.0243 0.0469,0.0449 a 0.05718865,0.05718865 0 0 0 0.002,0 c 0.11112,0.10884 0.20267,0.24042 0.26562,0.38281 l 0.0117,0.0273 c 0.0198,0.0486 0.0376,0.0967 0.0508,0.14649 1.6e-4,5.9e-4 -1.5e-4,0.001 0,0.002 a 0.05718865,0.05718865 0 0 0 0,0.004 c 0.007,0.0265 0.0116,0.0554 0.0176,0.084 3.9e-4,0.002 0.0111,0.056 0.0156,0.0977 a 0.05718865,0.05718865 0 0 0 0,0.004 c 0,0 0.003,0.016 0.004,0.0254 0.001,0.0143 0.001,0.0199 0.002,0.0293 9.3e-4,0.0224 0.002,0.0442 0.002,0.0664 v 0.004 13.20704 c -4.8e-4,0.12258 -0.0193,0.24615 -0.0566,0.36523 -6.5e-4,0.002 -0.0152,0.0444 -0.0293,0.0801 -0.0628,0.15918 -0.16337,0.30798 -0.2832,0.42578 -0.0318,0.0312 -0.0634,0.0606 -0.0977,0.0879 0,0 -0.008,0.006 -0.0137,0.01 a 0.05718865,0.05718865 0 0 0 -0.002,0.002 c -0.006,0.004 5.8e-4,2.6e-4 -0.008,0.006 a 0.05718865,0.05718865 0 0 0 -0.004,0.002 c -0.002,0.001 -0.01,0.004 -0.0215,0.0137 -0.0111,0.008 -0.0199,0.0179 -0.0254,0.0215 0,0 -0.0278,0.0172 -0.0508,0.0312 v -12.94922 c -5.1e-4,-0.11588 -0.01,-0.23005 -0.0312,-0.34766 0,0 -0.0108,-0.0517 -0.0215,-0.0957 h 0.002 c -0.0101,-0.0433 -0.0239,-0.0864 -0.0371,-0.12891 v -0.004 c -7.5e-4,-0.003 -0.004,-0.0175 -0.01,-0.0332 v -0.002 c -0.025,-0.075 -0.0581,-0.14833 -0.0918,-0.21875 l -0.002,-0.004 c -0.006,-0.0122 -0.0112,-0.0251 -0.0195,-0.041 l -0.006,-0.0117 c 0,0 -0.009,-0.0202 -0.0176,-0.0371 -0.0124,-0.0226 -0.0263,-0.0424 -0.0371,-0.0605 l -0.006,-0.01 c 0,0 -0.009,-0.017 -0.0176,-0.0312 -0.0102,-0.016 -0.0221,-0.0334 -0.0351,-0.0527 a 0.05718865,0.05718865 0 0 0 0,-0.002 l -0.0195,-0.0273 c -0.005,-0.007 -0.0137,-0.0176 -0.0137,-0.0176 a 0.05718865,0.05718865 0 0 0 0,-0.002 c -0.0202,-0.0279 -0.0405,-0.0546 -0.0625,-0.082 l -0.008,-0.01 -0.006,-0.008 a 0.05718865,0.05718865 0 0 0 -0.004,-0.004 c 0,0 -0.0129,-0.0137 -0.0215,-0.0234 -0.0471,-0.0546 -0.0951,-0.10677 -0.15039,-0.1582 l -0.008,-0.01 a 0.05718865,0.05718865 0 0 0 -0.004,-0.002 c 0,0 -0.0158,-0.015 -0.0273,-0.0254 a 0.05718865,0.05718865 0 0 0 -0.002,0 c -0.0253,-0.0221 -0.0501,-0.0443 -0.0781,-0.0664 a 0.05718865,0.05718865 0 0 0 -0.002,-0.002 c 0,0 -0.0132,-0.009 -0.0215,-0.0156 a 0.05718865,0.05718865 0 0 0 -0.002,-0.002 c -4.4e-4,-3.9e-4 -0.004,-0.002 -0.004,-0.002 -0.001,-0.001 -0.001,-0.002 -0.004,-0.004 -0.0134,-0.01 -0.0312,-0.0234 -0.0312,-0.0234 a 0.05718865,0.05718865 0 0 0 -0.006,-0.004 l -0.006,-0.004 -0.004,-0.002 c -0.011,-0.008 -0.0254,-0.0195 -0.0254,-0.0195 a 0.05718865,0.05718865 0 0 0 -0.004,-0.002 c -0.0405,-0.0274 -0.0807,-0.0508 -0.12109,-0.0742 l -0.002,-0.002 c -0.002,-0.001 -0.0203,-0.0145 -0.041,-0.0254 h -0.002 c -0.014,-0.008 -0.0229,-0.0126 -0.0391,-0.0215 -0.008,-0.005 -0.0138,-0.006 -0.0176,-0.008 l -0.006,-0.004 -0.004,-0.002 a 0.05718865,0.05718865 0 0 0 -0.004,-0.002 c -0.011,-0.006 -0.0184,-0.008 -0.0215,-0.01 l -0.004,-0.002 c -0.0139,-0.006 -0.0279,-0.0131 -0.0293,-0.0137 h -0.002 c -0.0144,-0.007 -0.0285,-0.0142 -0.0449,-0.0215 a 0.05718865,0.05718865 0 0 0 -0.002,0 l -0.0254,-0.01 c -0.0189,-0.008 -0.0365,-0.0145 -0.0547,-0.0215 a 0.05718865,0.05718865 0 0 0 -0.002,-0.002 l -0.0215,-0.008 v 0.002 c -0.016,-0.006 -0.0328,-0.0128 -0.0351,-0.0137 -0.01,-0.004 -0.0178,-0.008 -0.0254,-0.01 h -0.004 c -0.003,-0.001 -0.006,-0.003 -0.01,-0.004 -0.0217,-0.007 -0.043,-0.0118 -0.0625,-0.0176 l -0.0254,-0.008 h -0.002 c -0.0138,-0.004 -0.0261,-0.007 -0.0371,-0.01 l -0.004,-0.002 c -0.004,-0.001 -0.008,-0.001 -0.0117,-0.002 h -0.004 c -0.0161,-0.004 -0.0371,-0.008 -0.0371,-0.008 a 0.05718865,0.05718865 0 0 0 -0.004,-0.002 l -0.01,-0.002 h -0.002 c -0.0251,-0.005 -0.0489,-0.01 -0.0742,-0.0137 a 0.05718865,0.05718865 0 0 0 -0.004,0 l -0.0332,-0.004 h -0.002 c -0.0287,-0.004 -0.0573,-0.007 -0.084,-0.01 0,0 -0.0636,-0.006 -0.11719,-0.008 -0.0188,-6e-4 -0.0356,0 -0.0508,0 h -0.0117 -9.17773 c 0.001,-0.002 9.3e-4,-0.002 0.002,-0.004 0.0125,-0.0203 0.0264,-0.0396 0.041,-0.0606 0,0 0.0297,-0.0413 0.0449,-0.0605 0.008,-0.0104 0.0167,-0.0206 0.0273,-0.0332 a 0.05718865,0.05718865 0 0 0 0.002,0 c 0,0 0.0201,-0.0271 0.0391,-0.0469 0.0122,-0.0131 0.026,-0.0263 0.041,-0.041 a 0.05718865,0.05718865 0 0 0 0.002,0 c 0,0 0.0228,-0.0248 0.041,-0.041 0.0133,-0.0117 0.0279,-0.0231 0.043,-0.0352 0,0 0.031,-0.023 0.0566,-0.041 a 0.05718865,0.05718865 0 0 0 0.004,-0.004 l 0.004,-0.002 0.004,-0.004 c 0.0365,-0.0252 0.0747,-0.0482 0.11524,-0.0703 0.0157,-0.008 0.0221,-0.013 0.0195,-0.0117 0.0232,-0.0119 0.0479,-0.0224 0.0723,-0.0332 0.008,-0.004 0.0112,-0.006 0.0215,-0.01 a 0.05718865,0.05718865 0 0 0 0.002,0 c 0.0261,-0.0109 0.0531,-0.0211 0.0781,-0.0293 0,0 0.0273,-0.009 0.043,-0.0137 0,0 0.0404,-0.0104 0.0645,-0.0156 0.0178,-0.004 0.0449,-0.01 0.0449,-0.01 l 0.0449,-0.008 a 0.05718865,0.05718865 0 0 0 0.002,0 l 0.0215,-0.004 c 0.0528,-0.007 0.10507,-0.0115 0.1582,-0.0117 z m 8.13867,1.30078 c 0.0588,2e-4 0.1154,0.004 0.17188,0.0117 0.005,0.001 0.0216,0.006 0.0449,0.01 l 0.0234,0.004 c 0.009,0.001 0.019,0.003 0.0293,0.006 0.0134,0.004 0.0222,0.005 0.0254,0.006 0.0139,0.003 0.0274,0.007 0.043,0.0117 0,0 0.0199,0.006 0.0371,0.0117 0,0 0.0411,0.0129 0.0625,0.0215 0.0219,0.009 0.0443,0.0193 0.0664,0.0293 0,0 0.0369,0.0162 0.0625,0.0293 0.0514,0.027 0.10114,0.0578 0.14844,0.0918 l 0.002,0.002 c 0.001,8.5e-4 0.003,0.001 0.004,0.002 a 0.05718865,0.05718865 0 0 0 0.004,0.004 c 0.0289,0.0213 0.0552,0.0412 0.082,0.0644 0,0 0.0259,0.0246 0.0469,0.0449 0.11098,0.10897 0.20478,0.24232 0.26758,0.38477 l 0.0117,0.0273 c 0.0196,0.0479 0.0372,0.0983 0.0508,0.14844 a 0.05718865,0.05718865 0 0 0 0.004,0.01 c 0.006,0.0244 0.0102,0.0502 0.0156,0.0762 6.1e-4,0.004 0.009,0.0553 0.0137,0.0977 a 0.05718865,0.05718865 0 0 0 0,0.004 c 0,0 0.003,0.0161 0.004,0.0254 0.001,0.0142 0.001,0.0198 0.002,0.0293 0.001,0.0221 0.002,0.0435 0.002,0.0664 v 0.004 13.20898 c -4.8e-4,0.12259 -0.0192,0.24404 -0.0566,0.36328 0,0 -0.0135,0.0442 -0.0273,0.0801 -0.0138,0.0348 -0.0298,0.0703 -0.0469,0.10352 -0.0607,0.11982 -0.14306,0.23052 -0.23632,0.32226 -0.0313,0.0308 -0.0644,0.0602 -0.0996,0.0879 -0.003,0.002 -0.008,0.006 -0.0176,0.0137 -0.005,0.004 -0.0103,0.009 -0.006,0.006 a 0.05718865,0.05718865 0 0 0 -0.004,0.002 c -0.005,0.004 -0.0115,0.009 -0.0195,0.0156 -0.008,0.005 -0.0171,0.009 -0.0273,0.0156 a 0.05718865,0.05718865 0 0 0 0,0.002 c 0,0 -0.0242,0.0158 -0.043,0.0274 0,0 -0.007,0.003 -0.008,0.004 v -12.94726 c -5.2e-4,-0.11588 -0.01,-0.23028 -0.0312,-0.34766 0,0 -0.0109,-0.0534 -0.0215,-0.0977 -0.0103,-0.043 -0.022,-0.0861 -0.0351,-0.1289 v -0.004 c -8.3e-4,-0.003 -0.004,-0.0169 -0.01,-0.0332 -0.0251,-0.0749 -0.0556,-0.14872 -0.0898,-0.22071 l -0.002,-0.004 c -0.006,-0.0136 -0.0122,-0.0231 -0.0176,-0.0332 v -0.002 c -9.8e-4,-0.002 -0.003,-0.004 -0.004,-0.006 v -0.004 a 0.05718865,0.05718865 0 0 0 -0.006,-0.0117 c 0,0 -0.0104,-0.0197 -0.0176,-0.0332 -0.0112,-0.0207 -0.0232,-0.0403 -0.0352,-0.0605 l -0.006,-0.01 c 0,0 -0.009,-0.017 -0.0176,-0.0312 -0.0121,-0.0194 -0.0259,-0.0361 -0.0371,-0.0527 a 0.05718865,0.05718865 0 0 0 0,-0.002 l -0.0195,-0.0273 c -0.005,-0.007 -0.01,-0.0156 -0.01,-0.0156 a 0.05718865,0.05718865 0 0 0 -0.002,-0.002 c -0.0202,-0.0277 -0.0423,-0.0566 -0.0645,-0.084 a 0.05718865,0.05718865 0 0 0 -0.004,-0.006 l -0.004,-0.002 -0.002,-0.004 a 0.05718865,0.05718865 0 0 0 -0.004,-0.008 c 0,0 -0.0125,-0.0129 -0.0234,-0.0254 -0.0476,-0.0558 -0.0977,-0.10738 -0.15235,-0.15821 l -0.006,-0.008 a 0.05718865,0.05718865 0 0 0 -0.002,0 c 0,0 -0.0162,-0.0161 -0.0312,-0.0293 -0.0263,-0.0232 -0.0525,-0.0439 -0.0781,-0.0644 0,0 -0.0123,-0.0107 -0.0234,-0.0195 -0.003,-0.002 -0.006,-0.004 -0.01,-0.006 l -0.002,-0.002 c -0.001,-7.1e-4 -0.003,-0.001 -0.004,-0.002 -0.0126,-0.01 -0.0273,-0.0215 -0.0273,-0.0215 a 0.05718865,0.05718865 0 0 0 -0.002,0 l -0.01,-0.008 h -0.002 c -0.0123,-0.009 -0.0273,-0.0215 -0.0273,-0.0215 a 0.05718865,0.05718865 0 0 0 -0.004,-0.002 c -0.041,-0.0279 -0.0821,-0.0525 -0.12305,-0.0762 0,0 -0.0208,-0.0128 -0.0391,-0.0234 a 0.05718865,0.05718865 0 0 0 -0.002,-0.002 c -0.0124,-0.007 -0.0231,-0.0126 -0.041,-0.0215 -0.009,-0.005 -0.0138,-0.006 -0.0176,-0.008 l -0.006,-0.004 -0.004,-0.002 a 0.05718865,0.05718865 0 0 0 -0.004,-0.002 c -0.011,-0.006 -0.0184,-0.008 -0.0215,-0.01 l -0.004,-0.002 c -0.0146,-0.007 -0.0279,-0.0131 -0.0293,-0.0137 h -0.002 c -0.0132,-0.006 -0.0277,-0.0139 -0.0449,-0.0215 a 0.05718865,0.05718865 0 0 0 -0.002,0 l -0.0254,-0.01 c -0.0178,-0.007 -0.0377,-0.0143 -0.0566,-0.0215 a 0.05718865,0.05718865 0 0 0 0,-0.002 l -0.0215,-0.008 v 0.002 c -0.0169,-0.006 -0.0371,-0.0137 -0.0371,-0.0137 a 0.05718865,0.05718865 0 0 0 -0.004,-0.002 c -0.001,-3.1e-4 -0.01,-0.005 -0.0195,-0.008 h -0.004 c -0.003,-0.001 -0.006,-0.003 -0.01,-0.004 -0.0218,-0.007 -0.043,-0.0119 -0.0625,-0.0176 l -0.0254,-0.008 h -0.002 c -0.0153,-0.005 -0.0307,-0.009 -0.043,-0.0117 a 0.05718865,0.05718865 0 0 0 -0.002,0 c -0.002,-3.5e-4 -0.002,2e-4 -0.004,0 a 0.05718865,0.05718865 0 0 0 -0.004,-0.002 c -0.0207,-0.005 -0.0449,-0.008 -0.0449,-0.008 l -0.01,-0.002 h -0.002 c -0.0252,-0.005 -0.0488,-0.01 -0.0742,-0.0137 l -0.0352,-0.006 a 0.05718865,0.05718865 0 0 0 -0.004,0 c -0.0272,-0.003 -0.0561,-0.006 -0.084,-0.008 h -0.002 c -0.002,-1.9e-4 -0.0623,-0.006 -0.11523,-0.008 -0.0147,-4.2e-4 -0.0322,-0.002 -0.0508,-0.002 h -0.0117 -9.17579 c 9.7e-4,-0.002 0.001,-0.002 0.002,-0.004 0.0118,-0.0195 0.0261,-0.0387 0.041,-0.0605 0,0 0.028,-0.0397 0.043,-0.0586 0.011,-0.0138 0.0192,-0.0256 0.0273,-0.0352 0.001,-0.001 0.0232,-0.0259 0.043,-0.0469 0.0128,-0.0138 0.0267,-0.0275 0.041,-0.041 a 0.05718865,0.05718865 0 0 0 0.002,-0.002 c 0,0 0.0234,-0.0236 0.041,-0.0391 0.0131,-0.0115 0.0277,-0.0228 0.043,-0.0352 0,0 0.0305,-0.0225 0.0566,-0.041 a 0.05718865,0.05718865 0 0 0 0.002,-0.002 l 0.004,-0.002 a 0.05718865,0.05718865 0 0 0 0.002,-0.002 l 0.002,-0.002 c 0.0377,-0.0262 0.0757,-0.0507 0.11524,-0.0723 0.009,-0.005 0.0115,-0.005 0.0215,-0.01 a 0.05718865,0.05718865 0 0 0 0.01,-0.006 l 0.002,-0.002 a 0.05718865,0.05718865 0 0 0 0.002,0 c 0.0192,-0.01 0.0377,-0.0191 0.0566,-0.0273 a 0.05718865,0.05718865 0 0 0 0.002,-0.002 c 0.007,-0.003 0.008,-0.003 0.0195,-0.008 a 0.05718865,0.05718865 0 0 0 0.002,0 c 0.0245,-0.0101 0.0509,-0.0183 0.0781,-0.0273 a 0.05718865,0.05718865 0 0 0 0.004,-0.002 c 0,0 0.0244,-0.01 0.0371,-0.0137 0,0 0.0411,-0.0106 0.0684,-0.0176 l -0.002,0.002 c 0.0146,-0.003 0.0391,-0.008 0.0391,-0.008 a 0.05718865,0.05718865 0 0 0 0.002,0 c 0.0186,-0.003 0.0354,-0.007 0.0508,-0.01 l 0.0215,-0.004 c 0.0537,-0.007 0.10585,-0.0115 0.1582,-0.0117 h 0.0117 z m -10.74609,1.31055 h 0.01 9.43164 c 0.0585,1.9e-4 0.11517,0.004 0.17187,0.0117 0,0 0.024,0.004 0.0469,0.008 l 0.0234,0.004 c 0.009,0.001 0.0185,0.003 0.0293,0.006 0.0134,0.004 0.0223,0.005 0.0254,0.006 0.0135,0.003 0.0257,0.007 0.043,0.0117 0,0 0.0211,0.007 0.0371,0.0117 0,0 0.0386,0.0127 0.0605,0.0215 a 0.05718865,0.05718865 0 0 0 0.002,0 c 0.0224,0.008 0.0455,0.0198 0.0664,0.0293 0,0 0.0345,0.0156 0.0605,0.0293 0.0514,0.0269 0.10249,0.0568 0.14844,0.0898 l 0.002,0.002 c 0.002,0.001 0.004,0.003 0.006,0.004 a 0.05718865,0.05718865 0 0 0 0.002,0.002 c 0.0282,0.0207 0.0565,0.042 0.082,0.0644 0,0 0.0264,0.0249 0.0488,0.0469 0.11115,0.10886 0.20257,0.24014 0.26563,0.38281 l 0.0117,0.0273 c 0.0199,0.0486 0.0371,0.0995 0.0508,0.15039 a 0.05718865,0.05718865 0 0 0 0.004,0.01 c 0.006,0.0241 0.0102,0.0502 0.0156,0.0762 3.9e-4,0.002 0.0111,0.056 0.0156,0.0977 1e-4,0.002 9.6e-4,0.0155 0.002,0.0293 0.001,0.0139 0.001,0.0198 0.002,0.0293 9.4e-4,0.0224 0.002,0.0444 0.002,0.0664 v 0.004 13.20703 c -7.7e-4,0.12496 -0.0212,0.25207 -0.0566,0.36524 0,0 -0.0135,0.0452 -0.0273,0.0801 -0.0136,0.0346 -0.0295,0.0681 -0.0469,0.10156 a 0.05718865,0.05718865 0 0 0 0,0.002 c -0.0607,0.12004 -0.14303,0.23049 -0.23633,0.32227 -0.031,0.0304 -0.0645,0.06 -0.0996,0.0879 0,0 -0.008,0.006 -0.0137,0.01 a 0.05718865,0.05718865 0 0 0 -0.002,0.002 c -0.009,0.007 -0.006,0.006 -0.006,0.006 a 0.05718865,0.05718865 0 0 0 -0.004,0.002 c -0.005,0.004 -0.0101,0.008 -0.0156,0.0117 a 0.05718865,0.05718865 0 0 0 -0.002,0 c -0.0109,0.008 -0.0227,0.016 -0.0312,0.0215 a 0.05718865,0.05718865 0 0 0 -0.002,0.002 c 0,0 -0.0223,0.0158 -0.041,0.0273 a 0.05718865,0.05718865 0 0 0 -0.002,0 c 0,0 -0.0312,0.0204 -0.0547,0.0332 -0.0208,0.0112 -0.0441,0.021 -0.0703,0.0332 a 0.05718865,0.05718865 0 0 0 -0.004,0.002 c -0.08,0.0363 -0.16595,0.0661 -0.24805,0.084 0,0 -0.0442,0.009 -0.0723,0.0137 -0.0141,0.002 -0.027,0.004 -0.041,0.006 l -0.0391,0.004 c -0.0147,0.001 -0.0191,0.003 -0.0312,0.004 -0.0241,9.6e-4 -0.0473,0.002 -0.0703,0.002 h -0.004 -9.4414 c -0.0351,0 -0.0716,-0.003 -0.10938,-0.006 l -0.0371,-0.004 h -0.004 c -0.0169,-0.003 -0.0334,-0.006 -0.0352,-0.006 h -0.002 c -0.008,-0.002 -0.0215,-0.004 -0.0215,-0.004 a 0.05718865,0.05718865 0 0 0 -0.006,-0.002 c -0.0115,-0.002 -0.0252,-0.005 -0.0371,-0.008 0,0 -0.0127,-0.002 -0.0215,-0.004 h -0.002 c -0.0161,-0.004 -0.0318,-0.007 -0.0352,-0.008 l -0.004,-0.002 c -0.0104,-0.003 -0.0237,-0.005 -0.0254,-0.006 h -0.002 c -0.0146,-0.004 -0.0304,-0.01 -0.0469,-0.0156 l -0.002,-0.002 c -0.003,-9.8e-4 -0.0257,-0.0106 -0.0449,-0.0176 a 0.05718865,0.05718865 0 0 0 -0.004,0 c -0.003,-8.5e-4 -0.007,-0.002 -0.0117,-0.004 l -0.002,-0.002 c -4.6e-4,-2.9e-4 -0.003,-0.001 -0.004,-0.002 l -0.01,-0.004 c -0.006,-0.003 -0.012,-0.006 -0.0156,-0.008 -0.0163,-0.007 -0.023,-0.008 -0.0234,-0.008 a 0.05718865,0.05718865 0 0 0 -0.002,-0.002 c -0.0102,-0.005 -0.0116,-0.005 -0.0215,-0.01 -0.0132,-0.007 -0.027,-0.0127 -0.0293,-0.0137 l -0.002,-0.002 c -0.0291,-0.0152 -0.0562,-0.0322 -0.0859,-0.0508 V 205 c 0,0 -0.0108,-0.007 -0.0215,-0.0137 l -0.002,-0.002 c -0.067,-0.0442 -0.13207,-0.0993 -0.18945,-0.15625 a 0.05718865,0.05718865 0 0 0 -0.002,0 c -0.0143,-0.0139 -0.0143,-0.0143 -0.0195,-0.0195 v -0.002 c -0.0477,-0.0499 -0.0916,-0.10427 -0.13086,-0.16211 a 0.05718865,0.05718865 0 0 0 -0.002,-0.004 c 0,0 -0.0108,-0.0144 -0.0176,-0.0254 -0.0133,-0.0213 -0.0253,-0.043 -0.0371,-0.0644 a 0.05718865,0.05718865 0 0 0 -0.002,-0.002 c 0,0 -0.009,-0.0173 -0.0156,-0.0293 -0.007,-0.0136 -0.0125,-0.0256 -0.0195,-0.041 l -0.008,-0.0156 v -0.002 c -0.007,-0.0165 -0.0156,-0.0352 -0.0156,-0.0352 v 0.004 c -0.004,-0.0114 -0.009,-0.0237 -0.01,-0.0254 v -0.002 c -0.007,-0.0194 -0.0148,-0.0383 -0.0195,-0.0527 0,0 -0.008,-0.0233 -0.0137,-0.043 0,0 -0.0111,-0.0361 -0.0176,-0.0625 -0.002,-0.007 -0.004,-0.0234 -0.004,-0.0234 a 0.05718865,0.05718865 0 0 0 0,-0.002 c -0.007,-0.0358 -0.0148,-0.0729 -0.0195,-0.10938 v -0.002 l -0.004,-0.0312 v -0.006 c -2.7e-4,-0.0105 -0.001,-0.0189 -0.002,-0.0312 -0.002,-0.0215 -0.002,-0.0445 -0.002,-0.0703 v -0.006 -13.20312 -0.002 c 9.9e-4,-0.0381 0.002,-0.0768 0.006,-0.11133 l 0.004,-0.0371 v -0.002 c 0.003,-0.0206 0.006,-0.0404 0.01,-0.0586 v -0.002 c 3.5e-4,-0.002 0.004,-0.0157 0.006,-0.0293 v -0.004 c 0.004,-0.0197 0.01,-0.0419 0.0156,-0.0644 a 0.05718865,0.05718865 0 0 0 0.002,0 c 0,0 0.002,-0.016 0.006,-0.0293 0,0 0.01,-0.0282 0.0176,-0.0508 a 0.05718865,0.05718865 0 0 0 0,-0.002 c 0.005,-0.0159 0.0117,-0.0371 0.0117,-0.0371 a 0.05718865,0.05718865 0 0 0 0,-0.002 c 0.001,-0.004 0.004,-0.008 0.006,-0.0137 a 0.05718865,0.05718865 0 0 0 0,-0.002 c 0.0144,-0.0363 0.0325,-0.0754 0.0508,-0.11133 0,0 0.0233,-0.0448 0.0449,-0.0801 0.0125,-0.0203 0.0264,-0.0396 0.041,-0.0605 0,0 0.0276,-0.0388 0.043,-0.0586 0.0106,-0.0135 0.0197,-0.0264 0.0273,-0.0351 0.001,-0.001 0.0228,-0.0252 0.043,-0.0469 0.0133,-0.014 0.027,-0.0277 0.041,-0.041 0,0 0.0238,-0.0223 0.043,-0.0391 0.0149,-0.0133 0.0297,-0.0264 0.043,-0.0371 0,0 0.0296,-0.0231 0.0547,-0.041 a 0.05718865,0.05718865 0 0 0 0.004,-0.004 l 0.004,-0.002 0.004,-0.004 c 0.0373,-0.0258 0.0763,-0.0485 0.11718,-0.0703 0.0147,-0.008 0.0189,-0.0124 0.0176,-0.0117 h -0.01 a 0.05718865,0.05718865 0 0 0 0.0195,-0.004 0.05718865,0.05718865 0 0 0 0.006,-0.002 c 0.018,-0.009 0.0375,-0.0162 0.0586,-0.0254 0.0153,-0.007 0.0193,-0.0116 0.0195,-0.0117 a 0.05718865,0.05718865 0 0 0 0.002,0 c 0.0233,-0.01 0.0495,-0.0185 0.0762,-0.0273 0,0 0.0266,-0.007 0.0469,-0.0137 0,0 0.041,-0.0129 0.0625,-0.0176 0.0146,-0.003 0.0391,-0.008 0.0391,-0.008 a 0.05718865,0.05718865 0 0 0 0.004,0 l 0.0469,-0.01 0.0215,-0.002 a 0.05718865,0.05718865 0 0 0 0.004,0 c 0.0521,-0.007 0.10485,-0.0115 0.1582,-0.0117 z"
         transform="translate(-136.99752,-107.36901)" />
   </g>
</svg>